# xmcd
#
# Track frame offsets: 
#        150
#        16008
#        29457
#        41713
#        56621
#        70985
#        82287
#        96916
#        115833
#        138155
#        151987
#        166619
#        179518
#        194668
#        210777
#        224062
#        236410
#        249645
#        260960
#        273223
#        290374
#        337405
#
# Disc length: 4750 seconds
#
# Revision: 1
# Processed by: cddbd v1.5.2PL0 Copyright (c) Steve Scherf et al.
# Submitted via: ExactAudioCopy v0.95b4
#
DISCID=4f128c16
DTITLE=The Watts 103rd Street Rhythm Band - Together
DYEAR=1968
DGENRE=R&B
TTITLE0=Sorry Charlie
TTITLE1=Something You Got
TTITLE2=65 Bars And A Taste Of Soul
TTITLE3=Papa's Got A Brand New Bag
TTITLE4=(I Can't Get No) Satisfaction
TTITLE5=A Dance, A Kiss And A Song
TTITLE6=Phuncky Bill
TTITLE7=Get Ready
TTITLE8=Stormy Monday
TTITLE9=Giggin' Down 103rd
TTITLE10=My Summer's Gone
TTITLE11=Knock On Wood
TTITLE12=I Wake Up Crying
TTITLE13=Do Your Thing
TTITLE14=Bottomless
TTITLE15=65 Bars And A Taste Of Soul (mono single)
TTITLE16=Do Your Thing (mono single)
TTITLE17=A Dance, A Kiss And A Song (mono single)
TTITLE18=Poverty Stricken Chicken
TTITLE19=Happy Feet
TTITLE20=Do Your Thing (mono single)
TTITLE21=You've Lost That Lovin' Feelin'
EXTD=
EXTT0=
EXTT1=
EXTT2=
EXTT3=
EXTT4=
EXTT5=
EXTT6=
EXTT7=
EXTT8=
EXTT9=
EXTT10=
EXTT11=
EXTT12=
EXTT13=
EXTT14=
EXTT15=
EXTT16=
EXTT17=
EXTT18=
EXTT19=
EXTT20=
EXTT21=
PLAYORDER=
